<svg width="24" height="24" viewBox="0 0 24 24" fill="none" xmlns="http://www.w3.org/2000/svg">
<path d="M18.505 5.49999C14.925 1.91999 9.08499 1.91999 5.48499 5.49999C1.90499 9.07999 1.90499 14.92 5.48499 18.52C7.28499 20.32 9.64499 21.22 11.985 21.22C14.345 21.22 16.705 20.32 18.485 18.52C22.105 14.92 22.105 9.07999 18.505 5.49999ZM6.62499 17.38C3.84499 14.6 3.66499 10.2 6.08499 7.21998L16.785 17.92C13.805 20.32 9.40499 20.16 6.62499 17.38ZM17.925 16.78L7.22499 6.07999C8.60499 4.95999 10.305 4.39999 12.005 4.39999C13.945 4.39999 15.905 5.13998 17.385 6.61998C20.165 9.39998 20.325 13.8 17.925 16.78Z" fill="black"/>
</svg>
