<svg width="24" height="24" viewBox="0 0 24 24" fill="none" xmlns="http://www.w3.org/2000/svg">
<path d="M9.78508 10.94H4.32508C3.70508 10.94 3.20508 10.44 3.20508 9.81999V5.51999C3.20508 4.89999 3.70508 4.39999 4.32508 4.39999H9.78508C10.4051 4.39999 10.9051 4.89999 10.9051 5.51999V9.81999C10.9051 10.44 10.4051 10.94 9.78508 10.94ZM4.80508 9.33998H9.30508V5.99999H4.80508V9.33998ZM19.6851 10.94H14.2251C13.6051 10.94 13.1051 10.44 13.1051 9.81999V5.51999C13.1051 4.89999 13.6051 4.39999 14.2251 4.39999H19.6851C20.3051 4.39999 20.8051 4.89999 20.8051 5.51999V9.81999C20.8051 10.44 20.3051 10.94 19.6851 10.94ZM14.7051 9.33998H19.2051V5.99999H14.7051V9.33998ZM9.78508 19.6H4.32508C3.70508 19.6 3.20508 19.1 3.20508 18.48V14.18C3.20508 13.56 3.70508 13.06 4.32508 13.06H9.78508C10.4051 13.06 10.9051 13.56 10.9051 14.18V18.48C10.9051 19.1 10.4051 19.6 9.78508 19.6ZM4.80508 18H9.30508V14.66H4.80508V18ZM19.6851 19.6H14.2251C13.6051 19.6 13.1051 19.1 13.1051 18.48V14.18C13.1051 13.56 13.6051 13.06 14.2251 13.06H19.6851C20.3051 13.06 20.8051 13.56 20.8051 14.18V18.48C20.8051 19.1 20.3051 19.6 19.6851 19.6ZM14.7051 18H19.2051V14.66H14.7051V18Z" fill="black"/>
</svg>
