<svg width="24" height="24" viewBox="0 0 24 24" fill="none" xmlns="http://www.w3.org/2000/svg">
<path d="M19.0051 6.01999C19.0051 3.89999 15.4851 2.8 12.0051 2.8C8.5251 2.8 5.0051 3.89999 5.0051 6.01999C5.0051 6.03999 5.0051 6.06 5.0051 6.08V6.1V18.08C5.0051 20.14 8.5251 21.22 12.0051 21.22C15.4851 21.22 19.0051 20.14 19.0051 18.08V6.1V6.08C19.0051 6.04 19.0051 6.03999 19.0051 6.01999ZM17.4051 12.08C17.4051 12.52 15.5051 13.62 12.0051 13.62C8.5051 13.62 6.6051 12.54 6.6051 12.08V8.13999C8.0051 8.85999 9.9851 9.23999 12.0051 9.23999C14.0251 9.23999 16.0051 8.85999 17.4051 8.13999V12.08ZM12.0051 4.4C15.5651 4.4 17.4051 5.53999 17.4051 6.01999C17.4051 6.49999 15.5651 7.63999 12.0051 7.63999C8.4451 7.63999 6.6051 6.49999 6.6051 6.01999C6.6051 5.53999 8.4451 4.4 12.0051 4.4ZM12.0051 19.6C8.5051 19.6 6.6051 18.52 6.6051 18.06V14.14C8.0051 14.84 9.9851 15.2 12.0051 15.2C14.0251 15.2 16.0051 14.84 17.4051 14.14V18.06C17.4051 18.52 15.5051 19.6 12.0051 19.6ZM15.4051 11.38V10.4C15.4051 10.02 15.7251 9.7 16.1051 9.7C16.4851 9.7 16.8051 10.02 16.8051 10.4V11.38C16.8051 11.76 16.4851 12.08 16.1051 12.08C15.7251 12.08 15.4051 11.78 15.4051 11.38Z" fill="black"/>
</svg>
