<svg width="24" height="24" viewBox="0 0 24 24" fill="none" xmlns="http://www.w3.org/2000/svg">
<path d="M17.3651 7.77998L13.4851 16.14C13.1451 17 12.5451 17.5 11.8851 17.5C11.3451 17.5 10.8851 17.22 10.6251 16.78C10.3451 16.26 10.3651 15.62 10.7051 15.08L15.7851 6.93999C16.0451 6.53999 16.5651 6.40002 16.9851 6.62002C17.4051 6.84002 17.5651 7.33998 17.3651 7.77998ZM18.7251 10.2C18.4251 9.88 17.9251 9.86001 17.5851 10.16C17.2651 10.46 17.2451 10.96 17.5451 11.3C18.8651 12.74 19.6051 14.62 19.6051 16.6C19.6051 17.04 19.9651 17.4 20.4051 17.4C20.8451 17.4 21.2051 17.04 21.2051 16.6C21.2051 14.22 20.3251 11.94 18.7251 10.2ZM12.6451 8.87998C13.0851 8.91998 13.4651 8.60001 13.5051 8.16001C13.5451 7.72001 13.2251 7.34 12.7851 7.3C12.5251 7.28 12.2651 7.26001 12.0051 7.26001C6.9251 7.26001 2.8051 11.46 2.8051 16.62C2.8051 17.06 3.1651 17.42 3.6051 17.42C4.0451 17.42 4.4051 17.06 4.4051 16.62C4.4051 12.34 7.8051 8.86001 12.0051 8.86001C12.2251 8.84001 12.4451 8.85998 12.6451 8.87998Z" fill="black"/>
</svg>
